<svg width="24" height="24" viewBox="0 0 24 24" fill="none" xmlns="http://www.w3.org/2000/svg">
<path fill-rule="evenodd" clip-rule="evenodd" d="M9.4647 18.9292C4.23784 18.9292 0 14.6916 0 9.46451C0 4.23764 4.23784 0 9.4647 0C14.6916 0 18.9292 4.23764 18.9292 9.46451C18.9292 14.6916 14.6916 18.9292 9.4647 18.9292ZM17.4404 9.4645C17.4404 13.8695 13.8695 17.4402 9.46474 17.4402C5.05972 17.4402 1.48887 13.8695 1.48887 9.4645C1.48887 5.05969 5.05972 1.48904 9.46474 1.48904C13.8695 1.48904 17.4404 5.05969 17.4404 9.4645ZM17.2852 17.2852C16.7038 17.8666 16.7038 18.8092 17.2852 19.3905L21.4586 23.564C22.04 24.1453 22.9827 24.1453 23.5641 23.564C24.1453 22.9828 24.1453 22.04 23.5641 21.4586L19.3905 17.2852C18.8093 16.7038 17.8666 16.7038 17.2852 17.2852ZM17.4583 15.9088C17.2922 15.7428 17.0229 15.7428 16.8569 15.9088L15.9087 16.857C15.7426 17.0231 15.7426 17.2924 15.9087 17.4585C16.0748 17.6246 16.3441 17.6246 16.5102 17.4585L17.4583 16.5103C17.6243 16.3444 17.6243 16.0749 17.4583 15.9088Z" fill="var(--text-color)"/>
</svg>
